<svg xmlns="http://www.w3.org/2000/svg" viewBox="0 0 1200 800">

    <g stroke="#015050" stroke-width="1.5" opacity="0.12" fill="none">

        <line x1="150" y1="120" x2="350" y2="180"></line>
        <line x1="350" y1="180" x2="550" y2="90"></line>
        <line x1="550" y1="90" x2="800" y2="220"></line>
        <line x1="350" y1="180" x2="250" y2="400"></line>
        <line x1="250" y1="400" x2="500" y2="500"></line>
        <line x1="500" y1="500" x2="850" y2="450"></line>
        <line x1="850" y1="450" x2="1000" y2="250"></line>
        <line x1="500" y1="500" x2="650" y2="700"></line>
        <line x1="650" y1="700" x2="950" y2="650"></line>

    </g>

    <g fill="#015050" opacity="0.20">

        <circle cx="150" cy="120" r="6"></circle>
        <circle cx="350" cy="180" r="8"></circle>
        <circle cx="550" cy="90" r="6"></circle>
        <circle cx="800" cy="220" r="8"></circle>
        <circle cx="250" cy="400" r="7"></circle>
        <circle cx="500" cy="500" r="8"></circle>
        <circle cx="850" cy="450" r="7"></circle>
        <circle cx="1000" cy="250" r="6"></circle>
        <circle cx="650" cy="700" r="7"></circle>
        <circle cx="950" cy="650" r="6"></circle>

    </g>

</svg>